<?xml version="1.0" standalone="no"?><!DOCTYPE svg PUBLIC "-//W3C//DTD SVG 1.1//EN" "http://www.w3.org/Graphics/SVG/1.1/DTD/svg11.dtd"><svg t="1632284308931" class="icon" viewBox="0 0 1024 1024" version="1.1" xmlns="http://www.w3.org/2000/svg" p-id="2423" xmlns:xlink="http://www.w3.org/1999/xlink" width="200" height="200"><defs><style type="text/css"></style></defs><path d="M521.5625 192.5c-68.90625 0-195.1875 107.90625-355.96875 151.78125-26.8125 6.75-38.25 33.75-22.96875 54 34.5 40.40625 72.75 135 72.75 182.15625 0 0 153.09375 33.75 306.28125 33.75 153.1875 0 306.28125-33.75 306.28125-33.75 0-47.25 38.25-141.75 68.90625-185.53125 15.28125-16.875 3.75-43.875-19.125-50.625-160.875-43.875-287.15625-151.78125-356.15625-151.78125z m0 269.8125c-42.09375 0-76.5-64.03125-76.5-101.15625 0 0 34.5-33.75 76.5-33.75 42.09375 0 76.5 33.75 76.5 33.75 0.09375 37.125-34.3125 101.15625-76.5 101.15625z m-295.3125 173.90625s151.40625 26.4375 291.75 26.4375c140.25 0 299.0625-26.4375 299.0625-26.4375s-84.9375 182.71875-295.40625 182.71875c-210.46875 0-295.40625-182.71875-295.40625-182.71875z m0 0" p-id="2424"></path></svg>