<?xml version="1.0" standalone="no"?><!DOCTYPE svg PUBLIC "-//W3C//DTD SVG 1.1//EN" "http://www.w3.org/Graphics/SVG/1.1/DTD/svg11.dtd"><svg t="1628499836297" class="icon" viewBox="0 0 1024 1024" version="1.1" xmlns="http://www.w3.org/2000/svg" p-id="6063" xmlns:xlink="http://www.w3.org/1999/xlink" width="200" height="200"><defs><style type="text/css"></style></defs><path d="M513.44343893 292.96550529l-293.1948525-82.9830101c-26.68889142-7.55596098-53.18630625 12.49016551-53.18630627 40.22481374V818.50984028c0 18.70579035 12.43124965 35.12859054 30.41532053 40.22481375l293.19485253 82.98301011c26.68889142 7.55596098 53.20103523-12.49016551 53.20103521-40.22481376V333.19031903c0-18.70579035-12.43124965-35.12859054-30.4300495-40.22481374z m-13.75685683 550.09752596c0 27.7346482-26.51214381 47.78077472-53.18630626 40.22481373l-204.82103984-57.97322111a41.79786759 41.79786759 0 0 1-30.41532053-40.22481374V308.63712805c0-27.7346482 26.51214381-47.78077472 53.18630626-40.22481372l204.82103985 57.97322113a41.79786759 41.79786759 0 0 1 30.41532052 40.22481371v476.45268208z" fill="#707070" p-id="6064"></path><path d="M681.55988859 220.89666105l-250.05370296-82.5116831c-11.59169842-3.82953187-24.08186397 2.47446676-27.89666688 14.05143622-3.82953187 11.59169842 2.47446676 24.08186397 14.05143622 27.89666686l219.10813955 72.30450774c9.0583158 2.98998066 15.17083783 11.44440874 15.17083784 20.97405155V833.82796783c0 9.23506343-5.74429781 17.49801491-14.41966043 20.7089301l-40.60776692 15.05300609c-11.44440874 4.24194301-17.27708037 16.95304306-13.03513737 28.39745182 4.24194301 11.44440874 16.95304306 17.27708037 28.39745181 13.03513737l70.10989138-25.9966299c8.66063363-3.21091519 14.41966045-11.47386669 14.41966044-20.72365909l-0.08837381-622.44622059c0.01472898-9.51491383-6.09779308-17.96934191-15.15610887-20.95932258z" fill="#707070" p-id="6065"></path><path d="M856.86407499 185.28201454c0-9.52964279-6.11252205-17.98407088-15.17083784-20.97405153l-250.05370295-82.51168311c-11.59169842-3.82953187-24.08186397 2.47446676-27.89666688 14.05143623-3.82953187 11.59169842 2.47446676 24.08186397 14.05143621 27.89666686l219.10813955 72.30450773c9.0583158 2.98998066 15.17083783 11.44440874 15.17083787 20.97405154v560.20159855c0 9.23506343-5.74429781 17.49801491-14.41966045 20.7089301l-40.60776692 15.0530061c-11.44440874 4.24194301-17.27708037 16.95304306-13.03513739 28.39745181 4.24194301 11.44440874 16.95304306 17.27708037 28.39745182 13.03513737l70.10989139-25.9966299c8.66063363-3.21091519 14.41966045-11.47386669 14.41966044-20.72365907l-0.07364485-622.41676268z" fill="#707070" p-id="6066"></path></svg>