<?xml version="1.0" standalone="no"?><!DOCTYPE svg PUBLIC "-//W3C//DTD SVG 1.1//EN" "http://www.w3.org/Graphics/SVG/1.1/DTD/svg11.dtd"><svg t="1628492263672" class="icon" viewBox="0 0 1051 1024" version="1.1" xmlns="http://www.w3.org/2000/svg" p-id="2631" xmlns:xlink="http://www.w3.org/1999/xlink" width="205.2734375" height="200"><defs><style type="text/css"></style></defs><path d="M848.392 73.998 848.393 74c-75.553 0-136.8 61.915-136.8 138.254 0 8.07 0.728 15.974 2.068 23.661L308.055 405.784c-24.957-33.531-64.561-55.276-109.254-55.276-75.531 0-136.8 61.915-136.8 138.346 0 76.615 61.269 138.508 136.8 138.508 36.985 0 70.479-14.936 95.087-39.077l259.346 188.804c-7.955 17.545-12.433 37.059-12.433 57.642 0 76.385 61.015 138.277 136.546 138.277s136.8-61.915 136.8-138.277c0-76.338-61.269-138.231-136.8-138.231-33.584 0-64.276 12.326-88.017 32.651L326.754 537.996c5.707-15.259 8.846-31.814 8.846-49.119 0-9.735-1.067-19.194-2.988-28.328l403.774-169.102c24.721 35.677 65.587 59.082 111.983 59.082 75.553 0 136.8-61.915 136.8-138.277C985.191 135.913 923.947 73.998 848.392 73.998zM198.822 565.97c-42.466 0-77-34.471-77-77.068 0-42.443 34.534-76.932 77-76.932s77 34.471 77 76.932C275.822 531.465 241.288 565.97 198.822 565.97zM677.379 757.788c42.485 0 77.035 34.529 77.035 76.992 0 42.463-34.549 77.008-77.035 77.008s-76.965-34.546-76.965-77.008C600.414 792.317 634.912 757.788 677.379 757.788zM848.393 289.289c-42.466 0-77-34.546-77-77.008 0-42.462 34.534-76.992 77-76.992 42.466 0 77 34.529 77 76.992C925.393 254.744 890.859 289.289 848.393 289.289z" p-id="2632"></path></svg>